<?xml version="1.0" encoding="UTF-8"?>
<svg id="Layer_1" xmlns="http://www.w3.org/2000/svg" version="1.1" viewBox="0 0 824 824">
  <!-- Generator: Adobe Illustrator 29.8.4, SVG Export Plug-In . SVG Version: 2.1.1 Build 6)  -->
  <defs>
    <style>
      .st0 {
        fill: none;
      }

      .st0, .st1 {
        stroke: #fff;
        stroke-miterlimit: 10;
        stroke-width: 35px;
      }

      .st2 {
        font-family: Arial-Black, 'Arial Black';
        font-size: 200px;
        font-weight: 800;
      }

      .st2, .st1 {
        fill: #fff;
      }
    </style>
  </defs>
  <path class="st0" d=""/>
  <g>
    <g>
      <path class="st0" d="M372,513.2v84.8M437,174v84.8M307,174v84.8" pointer-events="all"/>
      <path class="st0" d="M502,258.8v127.2c0,70.2-58.2,127.2-130,127.2s-130-57-130-127.2v-127.2h260Z" pointer-events="all"/>
    </g>
    <g>
      <path class="st0" d="M374.1,516.2v57.8c0,0,187.9,0,187.9,0V34h-122v126.2" pointer-events="stroke"/>
      <path class="st1" d="M440.1,199.2l-26-52,26,13,26-13-26,52Z" pointer-events="all"/>
    </g>
    <g>
      <path class="st0" d="M372,528v176.3" pointer-events="stroke"/>
      <path class="st1" d="M372,743.3l-26-52,26,13,26-13-26,52Z" pointer-events="all"/>
    </g>
  </g>
  <path class="st0" d=""/>
  <text class="st2" transform="translate(307 447.4)"><tspan x="0" y="0">+</tspan></text>
</svg>