<?xml version="1.0" standalone="no"?>
<!DOCTYPE svg PUBLIC "-//W3C//DTD SVG 20010904//EN"
 "http://www.w3.org/TR/2001/REC-SVG-20010904/DTD/svg10.dtd">
<svg version="1.0" xmlns="http://www.w3.org/2000/svg"
 width="1205.000000pt" height="1205.000000pt" viewBox="0 0 1205.000000 1205.000000"
 preserveAspectRatio="xMidYMid meet">
<metadata>
Created by potrace 1.14, written by Peter Selinger 2001-2017
</metadata>
<g transform="translate(0.000000,1205.000000) scale(0.100000,-0.100000)"
fill="#000000" stroke="none">
<path d="M10997 10443 c-34 -106 -74 -195 -125 -284 -11 -20 -26 -47 -34 -60
-7 -13 -15 -26 -18 -29 -7 -7 -40 -58 -43 -67 -3 -8 -30 -41 -123 -147 -101
-114 -189 -196 -314 -287 -30 -22 -66 -50 -80 -62 -14 -12 -25 -19 -25 -17 0
5 -76 -40 -85 -49 -3 -4 -22 -15 -42 -25 -21 -11 -38 -24 -38 -29 0 -6 -3 -8
-6 -5 -3 3 -62 -22 -132 -57 -70 -35 -139 -67 -155 -70 -15 -4 -30 -11 -33
-16 -3 -5 -14 -9 -24 -9 -10 0 -25 -6 -32 -12 -7 -7 -17 -13 -23 -13 -11 0
-205 -65 -220 -73 -5 -3 -16 -7 -25 -8 -8 -1 -96 -22 -195 -47 -99 -25 -200
-49 -225 -52 -24 -4 -48 -9 -51 -11 -4 -2 -27 -6 -50 -9 -24 -3 -55 -7 -69
-10 -70 -13 -314 -46 -380 -51 -30 -2 -68 -6 -85 -9 -35 -5 -171 -16 -247 -20
-225 -11 -430 -18 -580 -19 -98 -1 -178 -2 -178 -3 0 -1 21 -36 46 -79 39 -66
85 -159 127 -256 15 -32 123 -149 131 -141 3 4 6 1 6 -7 0 -7 15 -29 33 -50
56 -65 81 -96 116 -146 19 -27 38 -51 41 -54 4 -3 19 -26 33 -51 15 -25 38
-51 51 -58 23 -13 34 -12 146 6 19 3 44 7 55 8 11 2 20 4 20 5 0 1 16 3 35 5
19 2 46 7 60 10 14 3 41 8 60 11 19 3 42 8 50 11 8 3 24 7 35 9 11 1 63 12
115 24 52 12 103 23 112 25 97 21 500 140 523 153 6 4 15 7 20 8 19 3 300 116
375 151 140 65 180 86 180 94 0 5 7 6 15 3 8 -3 17 0 20 8 3 8 12 15 19 15 18
0 186 100 321 192 97 66 149 104 220 163 185 154 357 349 473 535 63 100 144
262 137 273 -3 5 -2 10 3 12 21 8 110 317 97 337 -3 5 -2 12 3 15 22 13 22
411 0 432 -2 1 -20 -50 -41 -113z"/>
<path d="M832 10508 c-17 -61 -6 -334 17 -446 33 -157 129 -422 153 -422 5 0
7 -4 4 -9 -5 -8 98 -191 113 -201 5 -3 13 -15 19 -26 21 -40 144 -189 154
-186 5 1 7 -2 4 -6 -3 -5 40 -55 97 -110 124 -122 162 -154 172 -144 5 4 6 2
2 -4 -3 -5 5 -18 19 -29 13 -10 52 -40 86 -66 34 -26 66 -46 70 -43 4 3 8 1 8
-4 0 -5 17 -20 38 -34 103 -69 151 -98 161 -98 6 0 11 -4 11 -10 0 -5 7 -10
15 -10 8 0 15 -5 15 -11 0 -5 4 -8 9 -4 5 3 12 1 16 -4 6 -11 9 -13 173 -95
97 -49 150 -74 172 -81 10 -3 106 -47 134 -60 16 -8 32 -12 36 -10 5 3 10 2
12 -3 2 -6 91 -44 133 -56 6 -2 17 -6 25 -9 67 -25 134 -45 141 -42 4 3 9 1
11 -3 2 -7 226 -77 277 -87 9 -2 52 -12 96 -24 44 -11 96 -23 115 -26 19 -3
49 -10 65 -16 47 -15 297 -60 303 -55 2 3 12 1 22 -4 9 -5 32 -11 51 -14 113
-14 145 -16 155 -9 6 4 39 49 74 98 35 50 72 98 82 108 10 10 16 22 13 28 -4
5 1 9 9 9 9 0 16 4 16 9 0 4 17 28 38 51 20 24 36 47 35 52 -2 4 1 7 5 5 16
-4 128 127 150 177 50 108 78 164 119 234 24 40 37 72 30 73 -7 0 -106 2 -221
4 -210 4 -352 10 -501 20 -44 3 -111 8 -150 10 -38 3 -88 7 -110 10 -22 3 -67
7 -100 9 -33 3 -71 7 -85 10 -14 2 -47 7 -75 10 -27 4 -66 9 -85 11 -19 3 -66
10 -105 16 -38 5 -90 14 -115 19 -25 5 -61 12 -81 14 -20 3 -42 8 -50 10 -8 3
-25 7 -39 10 -68 12 -296 72 -408 108 -152 47 -363 134 -487 198 -92 48 -296
168 -305 179 -3 4 -21 18 -40 31 -19 14 -45 33 -57 43 -11 11 -24 19 -27 18
-13 -3 -257 249 -315 324 -34 44 -66 85 -71 92 -6 7 -10 15 -10 18 0 4 -13 25
-28 48 -64 94 -182 365 -182 418 0 31 -19 22 -28 -13z"/>
<path d="M5553 9305 c-104 -28 -238 -81 -333 -133 -65 -35 -176 -107 -196
-126 -6 -6 -30 -27 -54 -46 -136 -110 -282 -295 -369 -467 -42 -85 -93 -209
-94 -230 0 -7 -4 -10 -7 -8 -10 6 -173 -164 -249 -260 -35 -44 -88 -116 -117
-160 -29 -44 -65 -90 -81 -102 -75 -60 -92 -72 -149 -106 -54 -32 -138 -74
-244 -120 -152 -66 -523 -160 -721 -182 -30 -3 -65 -8 -79 -10 -144 -22 -436
-39 -690 -39 -182 0 -483 11 -535 19 -60 9 -361 13 -405 5 -25 -5 -58 -10 -75
-13 -71 -11 -183 -47 -269 -87 -22 -10 -81 -38 -131 -61 -49 -23 -92 -43 -95
-44 -3 0 -58 -26 -122 -57 -64 -31 -126 -59 -137 -63 -12 -3 -21 -11 -21 -16
0 -6 -5 -7 -10 -4 -6 3 -10 3 -10 -1 0 -6 44 -54 257 -284 23 -25 50 -54 60
-66 113 -131 368 -394 428 -441 108 -86 130 -101 137 -97 4 3 8 1 8 -5 0 -24
303 -175 415 -206 17 -5 32 -9 35 -10 3 -1 25 -7 50 -14 43 -13 57 -16 110
-26 14 -3 36 -7 50 -10 46 -9 194 -19 280 -18 150 0 250 14 406 53 182 47 329
112 504 223 112 71 332 213 545 352 146 95 154 99 153 77 -1 -18 12 -135 18
-167 2 -11 7 -33 10 -50 17 -100 90 -350 116 -398 7 -14 4 -33 -11 -70 -74
-185 -85 -388 -32 -577 37 -130 118 -273 207 -365 15 -15 24 -40 28 -81 4 -32
8 -75 11 -94 2 -19 7 -57 10 -85 3 -27 8 -63 11 -80 3 -16 7 -43 9 -60 5 -48
15 -107 25 -155 5 -25 11 -58 14 -75 9 -58 28 -151 41 -205 8 -30 16 -66 19
-80 15 -84 130 -521 195 -740 22 -73 77 -289 86 -335 49 -253 56 -360 41 -588
-6 -100 -10 -128 -26 -227 -5 -30 -12 -71 -15 -90 -12 -71 -55 -222 -91 -312
-74 -189 -85 -227 -89 -311 -10 -228 84 -427 265 -559 93 -67 243 -118 352
-118 51 0 63 -4 91 -29 142 -129 336 -183 567 -157 103 12 110 13 202 30 79
15 94 15 175 1 241 -43 373 -48 489 -19 71 17 174 59 184 73 3 5 19 15 35 24
17 9 44 30 62 46 28 27 39 31 91 31 32 0 93 9 136 20 77 19 216 85 216 101 0
5 5 9 10 9 29 0 165 154 153 172 -3 6 -2 8 4 5 16 -10 66 105 88 206 15 67 13
200 -4 271 -7 28 -26 82 -43 120 -66 152 -125 363 -144 516 -4 30 -8 66 -10
80 -24 170 -21 422 7 573 5 32 12 70 14 85 8 51 45 191 144 553 54 200 108
402 119 449 36 145 54 224 57 250 2 14 4 25 5 25 3 0 30 144 36 190 2 17 10
62 18 100 7 39 16 93 20 120 3 28 11 91 17 140 10 81 14 117 18 165 0 8 17 33
36 55 85 96 186 284 201 373 3 15 7 33 9 40 3 8 8 37 11 64 19 152 5 280 -42
413 -14 39 -28 78 -31 87 -3 9 3 39 13 65 11 26 19 50 20 53 0 3 4 12 7 20 13
29 55 186 61 225 4 22 11 56 16 75 8 32 20 128 24 190 1 14 6 25 12 25 5 0 55
-30 112 -67 57 -38 107 -68 111 -68 4 0 16 -9 26 -20 10 -11 24 -20 32 -20 7
0 13 -4 13 -8 0 -5 10 -14 23 -19 13 -6 77 -46 143 -89 65 -44 127 -83 136
-89 10 -5 62 -38 115 -72 191 -120 413 -209 593 -238 19 -3 62 -10 95 -16 83
-15 343 -15 438 0 114 18 128 21 172 33 22 6 45 11 50 12 49 9 224 78 310 121
178 91 318 193 450 329 78 80 254 270 306 330 19 21 50 55 69 75 19 21 60 65
90 97 30 33 77 84 104 113 26 28 47 53 45 55 -5 4 -170 82 -224 106 -22 10
-85 39 -140 65 -193 91 -248 115 -266 115 -10 0 -20 4 -24 9 -4 8 -40 18 -135
38 -94 19 -281 24 -435 10 -284 -25 -873 -26 -1075 -3 -19 3 -66 7 -105 11
-73 6 -119 12 -170 19 -16 3 -52 8 -80 12 -27 3 -53 8 -56 10 -3 1 -28 6 -55
10 -27 3 -52 8 -55 10 -3 2 -19 6 -36 8 -192 34 -569 172 -673 246 -17 12 -30
19 -30 15 0 -3 -6 -1 -12 5 -7 6 -31 24 -53 41 -86 65 -113 90 -141 131 -40
61 -134 190 -150 208 -8 8 -35 39 -61 69 -27 30 -78 84 -115 120 -49 49 -71
79 -83 116 -43 128 -153 322 -249 440 -162 197 -373 351 -611 445 -73 29 -255
83 -261 77 -2 -1 39 -28 90 -59 305 -187 544 -462 641 -737 l15 -43 -86 -85
c-113 -111 -141 -176 -119 -273 6 -29 44 -94 77 -135 5 -5 45 -59 90 -120 44
-60 108 -147 142 -192 34 -45 88 -118 121 -163 32 -45 66 -90 75 -100 8 -11
37 -51 65 -89 27 -39 52 -71 55 -71 4 0 7 -6 8 -12 0 -7 11 -40 23 -73 45
-124 17 -310 -58 -392 -6 -7 -20 -23 -30 -35 -10 -13 -45 -45 -78 -73 -73 -61
-183 -171 -233 -234 -20 -25 -40 -48 -43 -51 -3 -3 -33 -46 -67 -95 -73 -109
-146 -248 -195 -370 -35 -87 -100 -299 -110 -360 -3 -16 -12 -70 -21 -120 -53
-305 -54 -863 -1 -1340 3 -22 7 -62 10 -90 9 -86 15 -139 21 -175 3 -19 7 -51
9 -70 5 -41 10 -78 25 -180 6 -41 16 -104 21 -140 5 -36 28 -173 50 -305 22
-132 42 -251 44 -265 2 -14 11 -68 20 -120 18 -110 20 -118 35 -225 6 -44 13
-91 16 -105 9 -55 18 -209 17 -282 -2 -127 -59 -212 -185 -278 -32 -17 -58
-28 -58 -25 0 3 -9 1 -20 -5 -47 -25 -214 -40 -305 -27 -89 14 -203 59 -246
98 -69 63 -113 65 -186 10 -100 -75 -201 -110 -328 -113 -258 -7 -462 109
-493 279 -10 61 -4 262 12 338 2 11 7 43 10 70 6 43 47 303 61 388 3 15 7 39
10 55 2 15 13 83 25 152 27 162 29 175 55 335 8 55 20 127 25 160 9 57 14 96
25 190 3 22 7 51 10 65 4 26 10 73 20 175 4 33 8 70 10 81 2 12 6 61 10 110 4
49 9 105 11 124 23 230 23 680 -1 970 -19 234 -115 572 -223 785 -44 88 -199
325 -212 325 -6 0 -10 6 -10 13 0 13 -161 182 -221 232 -109 90 -141 129 -179
212 -49 110 -45 257 12 367 10 20 118 173 145 206 7 8 41 56 77 105 35 50 72
98 80 108 9 9 16 21 16 26 0 5 4 11 8 13 4 2 53 64 107 138 55 74 115 155 133
179 72 96 86 151 62 240 -14 52 -13 52 -117 155 l-83 82 29 75 c92 239 259
444 514 633 42 31 79 56 83 56 4 0 15 6 23 14 9 7 38 25 66 40 61 32 47 32
-72 1z m2777 -2265 c94 -24 285 -57 372 -65 35 -3 79 -7 98 -10 107 -13 335
-18 965 -21 385 -1 723 -5 750 -8 198 -20 287 -32 378 -53 37 -8 67 -19 67
-24 0 -9 -29 -8 -200 6 -508 42 -1411 28 -1508 -24 -33 -17 -242 -73 -323 -86
-78 -12 -280 -14 -324 -2 -89 23 -118 33 -178 65 -100 52 -214 176 -224 244
-2 15 1 16 22 8 14 -5 61 -19 105 -30z m-4650 20 c0 -19 -66 -114 -109 -158
-62 -63 -171 -118 -281 -143 -174 -38 -359 -17 -625 70 -88 28 -144 37 -315
47 -47 3 -116 7 -155 9 -86 5 -618 6 -700 1 -33 -2 -123 -7 -200 -11 -77 -3
-156 -8 -175 -10 -244 -24 -272 -3 -45 34 96 16 116 19 181 26 33 3 83 9 110
11 27 3 369 7 759 8 391 2 751 6 800 10 182 13 231 17 255 21 14 2 50 7 80 11
78 9 287 50 340 67 55 18 80 20 80 7z m766 -1403 c57 -35 127 -109 178 -187
49 -74 66 -118 66 -167 0 -55 -16 -78 -90 -127 -152 -100 -358 -39 -441 129
-20 41 -24 65 -24 135 0 60 5 94 17 116 23 42 80 98 119 117 48 23 125 16 175
-16z m3161 14 c51 -24 100 -73 124 -126 23 -50 25 -152 4 -202 -8 -20 -13 -38
-11 -40 5 -5 -25 -43 -74 -93 -114 -116 -325 -107 -437 20 -48 54 -16 171 78
290 62 79 107 118 164 146 60 29 96 30 152 5z m-2580 -4182 c35 -50 128 -139
231 -219 89 -69 109 -105 90 -162 -35 -109 -155 -107 -266 3 -41 42 -112 146
-112 166 0 6 -6 23 -14 39 -23 46 -35 132 -31 224 4 125 12 135 45 57 15 -35
40 -84 57 -108z m1921 143 c11 -52 10 -194 -3 -251 -25 -104 -85 -211 -158
-281 -110 -106 -240 -94 -261 25 -9 48 25 94 119 165 102 77 200 171 200 191
0 5 5 13 12 17 13 8 73 133 73 153 0 16 13 3 18 -19z"/>
</g>
</svg>
